<?xml version="1.0" encoding="UTF-8"?>
<svg width="249px" height="124px" viewBox="0 0 249 124" version="1.1" xmlns="http://www.w3.org/2000/svg" xmlns:xlink="http://www.w3.org/1999/xlink">
    <title>planet</title>
    <g id="web" stroke="none" stroke-width="1" fill="none" fill-rule="evenodd">
        <g id="2025July-Copy-2" transform="translate(-617, -558)">
            <g id="planet" transform="translate(620, 558)">
                <path d="M60.5627752,46.3349211 C50.8595462,81.0808548 79.6951845,131.889927 127.555273,122.966021 C200.357391,109.391469 186.903849,17.5070828 145.832805,4.26853764 C104.761761,-8.97000757 70.8318843,9.56264883 60.5627752,46.3349211 Z" id="Path" fill="#2A2929"></path>
                <path d="M58.697911,66.3392451 C17.0809486,86.0081849 -2.40611772,101.116414 0.236711987,111.663932 C4.20095655,127.485209 144.276052,75.2766746 183.329403,60.3849359 C191.097568,57.4227962 203.681429,51.9361458 215.206775,45.640621 C230.760078,37.1448927 244.385704,27.1761113 241.647363,19.9505742 C239.453051,14.1605416 183.288343,23.1599757 170.292409,27.1710435" id="Path" stroke="#727272" stroke-width="6"></path>
                <path d="M82.7022387,35.267042 C81.8367702,37.2788679 80.3314481,40.682286 79.9268373,42.8346728 C74.5733048,71.3135821 103.792932,39.2675588 88.0069695,36.4060185 L82.7022387,35.267042 Z" id="Path" fill="#D8D8D8"></path>
                <path d="M111.590683,37.2885585 C107.711704,42.5077975 109.123618,58.3686797 118.789888,53.5585637 C124.642196,50.6463457 125.683398,37.5533476 120.544348,35.267042 L111.590683,37.2885585 Z" id="Path" fill="#D8D8D8"></path>
                <path d="M93.335461,55.3198342 C95.2050759,57.1333832 96.7248801,58.2092316 97.8948734,58.5473794 C99.0648668,58.8855272 100.936476,58.7898544 103.509701,58.260361" id="Path" stroke="#D8D8D8" stroke-width="3" stroke-linecap="round" transform="translate(98.4226, 57.0324) rotate(-16) translate(-98.4226, -57.0324)"></path>
            </g>
        </g>
    </g>
</svg>